<svg width="269" height="77" viewBox="0 0 269 77" fill="none" xmlns="http://www.w3.org/2000/svg">
<rect width="269" height="77" fill="black"/>
<path d="M47.0625 68.1406C47.0625 68.4219 46.9531 68.6719 46.7344 68.8906C46.5469 69.1094 46.3125 69.2812 46.0312 69.4062C45.75 69.5625 45.4531 69.7031 45.1406 69.8281C44.8594 69.9531 44.6094 70.0625 44.3906 70.1562C44.0469 69.9688 43.6875 69.8438 43.3125 69.7812C42.9688 69.7188 42.6562 69.5625 42.375 69.3125H42.0469C41.5469 69.3125 41.1562 69.375 40.875 69.5C40.4375 69.3438 40.0781 69.1094 39.7969 68.7969C39.5156 68.5156 39.25 68.2031 39 67.8594C38.75 67.5469 38.5 67.2344 38.25 66.9219C38 66.6094 37.6875 66.3438 37.3125 66.125C36.75 64.5625 36.25 62.9844 35.8125 61.3906C35.375 59.7969 35.0469 58.1719 34.8281 56.5156C34.8906 56.3594 34.9375 56.1875 34.9688 56C35 55.8125 35.0156 55.6406 35.0156 55.4844C35.0156 55.3594 34.9844 55.2344 34.9219 55.1094C34.8906 54.9531 34.7969 54.8594 34.6406 54.8281C34.7969 54.5781 34.8906 54.2969 34.9219 53.9844C34.9844 53.6406 35.0156 53.3281 35.0156 53.0469C35.0156 52.4219 34.9531 51.9062 34.8281 51.5C35.0156 51.3438 35.0938 51.0938 35.0625 50.75C35.0312 50.375 35.1094 50.1094 35.2969 49.9531C35.1406 49.4219 35.0625 48.9062 35.0625 48.4062C35.0625 47.7188 35.1406 47.0469 35.2969 46.3906C35.4844 45.7344 35.5781 45.0625 35.5781 44.375C35.5781 44.2188 35.5625 44.0625 35.5312 43.9062C35.5312 43.75 35.5156 43.5938 35.4844 43.4375C35.6406 42.9375 35.7812 42.4375 35.9062 41.9375C36.0625 41.4062 36.1406 40.875 36.1406 40.3438C36.1406 39.9688 36.0781 39.6562 35.9531 39.4062C36.3594 37.9688 36.6406 36.5469 36.7969 35.1406C36.9844 33.7031 37.1562 32.25 37.3125 30.7812C37.2812 30.7188 37.25 30.6719 37.2188 30.6406C37.1875 30.6094 37.1719 30.5625 37.1719 30.5C37.1719 30.3438 37.25 30.2188 37.4062 30.125C37.5938 30.0312 37.6719 29.8594 37.6406 29.6094C37.2656 29.9844 36.9531 30.4219 36.7031 30.9219C36.4844 31.4219 36.2656 31.9219 36.0469 32.4219C35.8594 32.9219 35.6406 33.4219 35.3906 33.9219C35.1719 34.3906 34.875 34.8125 34.5 35.1875C34.4688 35.5312 34.3594 35.8594 34.1719 36.1719C34.0156 36.4844 33.9375 36.8281 33.9375 37.2031C33.9062 37.2031 33.875 37.2031 33.8438 37.2031C33.8125 37.1719 33.7656 37.1562 33.7031 37.1562C33.5781 37.1562 33.4844 37.2344 33.4219 37.3906C33.3906 37.5469 33.2969 37.5938 33.1406 37.5312C32.4219 38.9375 31.625 40.3125 30.75 41.6562C29.9062 43 28.7969 44.0781 27.4219 44.8906C27.1719 44.7969 26.9375 44.75 26.7188 44.75C26.3125 44.75 25.9062 44.875 25.5 45.125C25.125 45.3438 24.875 45.4531 24.75 45.4531C24.4375 45.4531 24.0469 45.2969 23.5781 44.9844C23.1406 44.6406 22.6875 44.4531 22.2188 44.4219C21.7188 44.0781 21.2969 43.7344 20.9531 43.3906C20.6406 43.0156 20.1562 42.7969 19.5 42.7344C19.0625 42.0781 18.625 41.4531 18.1875 40.8594C17.7812 40.2656 17.375 39.6875 16.9688 39.125C16.5938 38.5312 16.25 37.9062 15.9375 37.25C15.6562 36.5938 15.4375 35.8594 15.2812 35.0469C15.3125 34.9844 15.3281 34.9219 15.3281 34.8594C15.3281 34.6719 15.2344 34.5938 15.0469 34.625C14.8906 34.6562 14.8125 34.5625 14.8125 34.3438V34.0156C14.8125 33.7656 14.7656 33.5469 14.6719 33.3594C14.6094 33.1406 14.5938 32.9062 14.625 32.6562C14.4062 32.3125 14.2344 31.9531 14.1094 31.5781C13.9844 31.2031 13.7656 30.875 13.4531 30.5938V30.1719C13.4531 29.9844 13.4375 29.8125 13.4062 29.6562C13.4062 29.4688 13.3594 29.3125 13.2656 29.1875C13.2031 29.0312 13.0938 28.9375 12.9375 28.9062C12.9062 27.7812 12.6719 26.6406 12.2344 25.4844C11.8281 24.2969 11.4531 23.1562 11.1094 22.0625C10.8594 22.875 10.6719 23.7031 10.5469 24.5469C10.4219 25.3594 10.3594 26.1875 10.3594 27.0312V27.8281C10.3594 28.0781 10.3906 28.3281 10.4531 28.5781C10.3594 28.7344 10.2188 28.8438 10.0312 28.9062C9.875 28.9688 9.78125 29.0938 9.75 29.2812C9.71875 29.4375 9.70312 29.5938 9.70312 29.75C9.73438 29.9062 9.73438 30.0625 9.70312 30.2188C9.64062 30.9688 9.54688 31.6875 9.42188 32.375C9.23438 33.4062 9.01562 34.4531 8.76562 35.5156C8.51562 36.5469 8.39062 37.6094 8.39062 38.7031C8.39062 38.7656 8.39062 38.8594 8.39062 38.9844C8.42188 39.0781 8.4375 39.1562 8.4375 39.2188C7.9375 39.6562 7.67188 40.2031 7.64062 40.8594C7.60938 41.5156 7.53125 42.1406 7.40625 42.7344C7.25 43.6094 7.0625 44.4844 6.84375 45.3594C6.625 46.2031 6.4375 47.0781 6.28125 47.9844C6.1875 48.4844 6.10938 48.9844 6.04688 49.4844C5.98438 49.9531 5.92188 50.4375 5.85938 50.9375C5.82812 51.2188 5.71875 51.4531 5.53125 51.6406C5.375 51.8281 5.26562 52.0469 5.20312 52.2969C5.17188 52.5156 5.15625 52.7656 5.15625 53.0469C5.1875 53.2969 5.20312 53.5312 5.20312 53.75C5.20312 54.125 5.17188 54.4844 5.10938 54.8281C5.04688 55.1406 4.85938 55.4219 4.54688 55.6719C4.60938 56.4844 4.75 57.1719 4.96875 57.7344C5.1875 58.3281 5.4375 58.9844 5.71875 59.7031H6.89062V59.8906C6.89062 60.2031 6.9375 60.4844 7.03125 60.7344C7.15625 60.9844 7.39062 61.0938 7.73438 61.0625C7.70312 61.1875 7.6875 61.3438 7.6875 61.5312C7.6875 61.8125 7.73438 62.0625 7.82812 62.2812C7.95312 62.5312 8.04688 62.7969 8.10938 63.0781C7.48438 64.1094 6.8125 64.875 6.09375 65.375C5.375 65.875 4.39062 66.125 3.14062 66.125H2.39062C2.23438 65.625 2.04688 65.1406 1.82812 64.6719C1.60938 64.2031 1.39062 63.7344 1.17188 63.2656C0.984375 62.7969 0.8125 62.3125 0.65625 61.8125C0.53125 61.3438 0.46875 60.8438 0.46875 60.3125C0.46875 60.1875 0.484375 60.0625 0.515625 59.9375C0.546875 59.8438 0.5625 59.7344 0.5625 59.6094C0.5625 59.4531 0.5 59.3594 0.375 59.3281C0.25 59.2969 0.1875 59.1406 0.1875 58.8594C0.1875 58.6406 0.171875 58.4375 0.140625 58.25C0.140625 58.0625 0.140625 57.8594 0.140625 57.6406C0.140625 56.6094 0.21875 55.5938 0.375 54.5938C0.53125 53.5625 0.640625 52.5312 0.703125 51.5C0.859375 51.3438 0.9375 51.1406 0.9375 50.8906C0.9375 50.6406 1.01562 50.4375 1.17188 50.2812V49.9531C1.17188 49.3906 1.23438 48.8281 1.35938 48.2656C1.48438 47.7031 1.625 47.1562 1.78125 46.625C1.9375 46.0938 2.07812 45.5469 2.20312 44.9844C2.32812 44.4219 2.39062 43.8594 2.39062 43.2969V42.5469C2.39062 42.3281 2.48438 42.2344 2.67188 42.2656C2.89062 42.2656 3.01562 42.1406 3.04688 41.8906C3.10938 41.4531 3.14062 41.0312 3.14062 40.625C3.17188 40.1875 3.21875 39.75 3.28125 39.3125C3.4375 38.4688 3.60938 37.625 3.79688 36.7812C3.98438 35.9062 4.07812 35.0312 4.07812 34.1562V34.0156C4.07812 33.9219 4.15625 33.7344 4.3125 33.4531C4.46875 33.1406 4.54688 32.8438 4.54688 32.5625C4.54688 32.3438 4.5 32.1406 4.40625 31.9531C4.4375 31.9844 4.5 32 4.59375 32C4.71875 32 4.79688 31.9688 4.82812 31.9062C4.89062 31.8125 4.96875 31.7344 5.0625 31.6719C4.96875 31.5469 4.92188 31.4219 4.92188 31.2969C4.92188 31.1406 4.9375 31 4.96875 30.875C5.03125 30.7188 5.0625 30.5625 5.0625 30.4062C5.0625 30.1875 4.95312 30.0312 4.73438 29.9375C5.10938 29.25 5.375 28.5156 5.53125 27.7344C5.71875 26.9531 5.84375 26.1562 5.90625 25.3438C6 24.5312 6.07812 23.7188 6.14062 22.9062C6.20312 22.0625 6.34375 21.2656 6.5625 20.5156C6.5 20.3281 6.45312 20.125 6.42188 19.9062C6.42188 19.6875 6.42188 19.4844 6.42188 19.2969C6.42188 19.1719 6.40625 19.0469 6.375 18.9219C6.34375 18.7656 6.35938 18.625 6.42188 18.5C6.42188 18.4375 6.4375 18.3594 6.46875 18.2656L6.5625 17.9844C6.625 17.7656 6.65625 17.5469 6.65625 17.3281C6.6875 17.0781 6.71875 16.8281 6.75 16.5781C6.8125 15.8594 6.82812 15.125 6.79688 14.375C6.79688 13.625 6.82812 12.875 6.89062 12.125C6.79688 12 6.70312 11.9062 6.60938 11.8438C6.51562 11.75 6.45312 11.625 6.42188 11.4688C6.67188 11.0312 6.9375 10.625 7.21875 10.25C7.53125 9.84375 7.9375 9.53125 8.4375 9.3125C8.53125 9.65625 8.78125 9.82812 9.1875 9.82812C9.375 9.82812 9.60938 9.78125 9.89062 9.6875C10.1719 9.59375 10.3594 9.46875 10.4531 9.3125C10.9844 9.5 11.5156 9.59375 12.0469 9.59375C12.6094 9.5625 13.125 9.6875 13.5938 9.96875C13.6875 10.4375 13.8125 10.9219 13.9688 11.4219C14.125 11.9219 14.3438 12.375 14.625 12.7812C14.6875 13.1875 14.75 13.6875 14.8125 14.2812C14.875 14.8438 14.9375 15.4375 15 16.0625C15.0625 16.6562 15.1562 17.2344 15.2812 17.7969C15.4062 18.3281 15.5781 18.75 15.7969 19.0625C15.8281 19.625 15.9219 20.1875 16.0781 20.75C16.2344 21.3125 16.4062 21.8594 16.5938 22.3906C16.7812 22.8906 16.9375 23.3594 17.0625 23.7969C17.2188 24.2344 17.2969 24.5938 17.2969 24.875C17.2969 25.125 17.25 25.2969 17.1562 25.3906C17.0938 25.4531 17.0312 25.5781 16.9688 25.7656C17.0938 26.1094 17.2656 26.4062 17.4844 26.6562C17.7031 26.875 17.9375 27.1406 18.1875 27.4531C18.6562 29.2344 19.2656 30.9688 20.0156 32.6562C20.7656 34.3438 21.6719 35.9688 22.7344 37.5312C23.0156 37.5625 23.2344 37.6406 23.3906 37.7656C23.5781 37.8906 23.8594 37.9219 24.2344 37.8594V38.1875C24.2344 38.5 24.2969 38.7188 24.4219 38.8438C24.7031 39.0312 25.0312 39.125 25.4062 39.125C25.8125 39.125 26.125 39.0156 26.3438 38.7969C26.5938 38.5469 26.8281 38.2656 27.0469 37.9531C27.2656 37.6406 27.4844 37.3438 27.7031 37.0625C27.9219 36.7812 28.2188 36.5938 28.5938 36.5V36.4062C28.5938 36.1562 28.6406 35.9531 28.7344 35.7969C28.8594 35.6094 28.9219 35.4062 28.9219 35.1875C29.2656 34.9375 29.5312 34.625 29.7188 34.25C29.9062 33.875 30.0781 33.5 30.2344 33.125C30.3906 32.7188 30.5625 32.3438 30.75 32C30.9688 31.6562 31.25 31.375 31.5938 31.1562C32.0312 29.8125 32.5625 28.5625 33.1875 27.4062C33.8125 26.25 34.4688 25.0781 35.1562 23.8906C35.1562 23.7969 35.1406 23.7031 35.1094 23.6094C35.0781 23.4844 35.0625 23.375 35.0625 23.2812C35.0625 23.25 35.0938 23.1094 35.1562 22.8594C35.3125 22.5469 35.4531 22.25 35.5781 21.9688C35.7031 21.6875 35.8125 21.375 35.9062 21.0312C36.2188 20.0625 36.5 19.1094 36.75 18.1719C37.0312 17.2344 37.4375 16.3438 37.9688 15.5V14.3281C38.5312 13.2031 38.9219 12.0156 39.1406 10.7656C39.3906 9.51562 39.6875 8.29688 40.0312 7.10938C40.0938 6.76563 40.2031 6.42187 40.3594 6.07812C40.5469 5.70312 40.7656 5.4375 41.0156 5.28125C40.9219 5.09375 40.875 4.90625 40.875 4.71875C40.875 4.46875 40.9062 4.25 40.9688 4.0625C41.0625 3.84375 41.1406 3.625 41.2031 3.40625C41.1094 3.1875 41.0625 2.90625 41.0625 2.5625C41.0625 2.125 41.1875 1.71875 41.4375 1.34375C41.6875 0.9375 42.0625 0.671875 42.5625 0.546875C42.875 0.640625 43.1406 0.796875 43.3594 1.01562C43.5781 1.23438 43.7812 1.46875 43.9688 1.71875C44.1875 1.9375 44.4062 2.125 44.625 2.28125C44.875 2.40625 45.1875 2.4375 45.5625 2.375C45.8125 2.84375 45.9844 3.34375 46.0781 3.875C46.1719 4.375 46.2188 4.89063 46.2188 5.42188C46.2188 6.14062 46.1562 6.89062 46.0312 7.67188C45.9062 8.42188 45.8594 9.1875 45.8906 9.96875C45.6406 10.4688 45.4531 11.0156 45.3281 11.6094C45.2344 12.1719 45.1406 12.75 45.0469 13.3438C44.9531 13.9375 44.8438 14.5156 44.7188 15.0781C44.5938 15.6406 44.375 16.1719 44.0625 16.6719C43.9688 18.0781 43.8594 19.4531 43.7344 20.7969C43.6406 22.1406 43.4844 23.4844 43.2656 24.8281L42.8438 27.5C42.7812 27.7188 42.7188 27.9688 42.6562 28.25C42.5938 28.5 42.5625 28.7188 42.5625 28.9062C42.5625 29.0938 42.5781 29.2969 42.6094 29.5156C42.6406 29.7031 42.7344 29.8438 42.8906 29.9375C42.6719 30.25 42.5156 30.625 42.4219 31.0625C42.3281 31.5 42.2344 31.9688 42.1406 32.4688L41.9062 33.9219C41.8438 34.3906 41.7188 34.8125 41.5312 35.1875V35.7031C41.5312 36.9531 41.3125 38.2344 40.875 39.5469V39.7812C40.875 39.9375 40.8594 40.0781 40.8281 40.2031C40.8281 40.2969 40.8281 40.4219 40.8281 40.5781C40.8281 40.7969 40.8906 40.9688 41.0156 41.0938C40.7656 41.9062 40.5312 42.75 40.3125 43.625C40.0938 44.4688 39.9375 45.3438 39.8438 46.25C39.75 47.4688 39.7344 48.7188 39.7969 50C39.8594 51.25 39.7031 52.4688 39.3281 53.6562C39.5156 54.2188 39.6406 54.8281 39.7031 55.4844L39.8906 57.4531C39.9531 58.1094 40.0469 58.7344 40.1719 59.3281C40.3281 59.9531 40.6094 60.4688 41.0156 60.875C41.0469 60.9375 41.0625 61.0312 41.0625 61.1562C41.0625 61.4062 41 61.5938 40.875 61.7188C40.9375 62.0312 41.0469 62.2969 41.2031 62.5156C41.3594 62.7344 41.5156 62.9375 41.6719 63.125C41.8281 63.3438 41.9531 63.5781 42.0469 63.8281C42.1719 64.0781 42.2344 64.3906 42.2344 64.7656C42.4844 65.1094 42.875 65.375 43.4062 65.5625C43.9375 65.75 44.4688 65.9375 45 66.125C45.5625 66.3125 46.0469 66.5469 46.4531 66.8281C46.8594 67.1406 47.0625 67.5781 47.0625 68.1406ZM100.594 4.76562C100.594 5.04688 100.578 5.32812 100.547 5.60938C100.547 5.89062 100.531 6.15625 100.5 6.40625C100.406 6.5625 100.219 6.625 99.9375 6.59375C99.6875 6.5625 99.4844 6.54688 99.3281 6.54688C99.1719 6.54688 99.0312 6.57813 98.9062 6.64062C98.8125 6.67188 98.7656 6.76563 98.7656 6.92188C98.7656 7.10938 98.7812 7.23438 98.8125 7.29688C98.5625 7.26562 98.2969 7.23438 98.0156 7.20312C97.7344 7.17187 97.4844 7.07812 97.2656 6.92188C96.8281 7.01562 96.4062 7.14063 96 7.29688C95.625 7.45312 95.25 7.625 94.875 7.8125C94.5 8 94.1094 8.17188 93.7031 8.32812C93.2969 8.48438 92.875 8.57812 92.4375 8.60938C92.1562 8.92188 91.7969 9.15625 91.3594 9.3125C90.9219 9.46875 90.4688 9.60938 90 9.73438C89.5312 9.85938 89.0938 10.0156 88.6875 10.2031C88.2812 10.3594 87.9531 10.6094 87.7031 10.9531C87.0156 11.0156 86.3594 11.1875 85.7344 11.4688C85.1094 11.75 84.4844 12.0469 83.8594 12.3594C83.2656 12.6719 82.6562 12.9688 82.0312 13.25C81.4062 13.5312 80.7344 13.7188 80.0156 13.8125C79.8281 14 79.5938 14.1562 79.3125 14.2812C79.0625 14.4062 78.7969 14.5312 78.5156 14.6562C78.2344 14.75 77.9688 14.8594 77.7188 14.9844C77.4688 15.1094 77.2656 15.2812 77.1094 15.5H77.0156C76.8906 15.5 76.7969 15.4688 76.7344 15.4062C76.6719 15.3438 76.5781 15.3125 76.4531 15.3125C76.3594 15.3125 76.2969 15.3281 76.2656 15.3594C75.5156 15.7031 74.7656 16.0625 74.0156 16.4375C73.2656 16.8125 72.4844 17.1719 71.6719 17.5156C70.0781 18.1719 68.4688 18.8125 66.8438 19.4375C65.2188 20.0625 63.6562 20.8281 62.1562 21.7344C61.8125 22.9844 61.5312 24.2656 61.3125 25.5781C61.0938 26.8594 60.7031 28.0938 60.1406 29.2812V31.4844C59.8281 32.0781 59.625 32.7344 59.5312 33.4531C59.4375 34.1719 59.3906 34.8594 59.3906 35.5156C59.3906 35.7656 59.3906 36 59.3906 36.2188C59.4219 36.4062 59.4375 36.6094 59.4375 36.8281C60.3438 36.5781 61.2188 36.2969 62.0625 35.9844C62.9375 35.6719 63.8125 35.3906 64.6875 35.1406C65.125 34.9844 65.5625 34.875 66 34.8125C66.4688 34.75 66.9219 34.6406 67.3594 34.4844C67.7031 34.3906 68.0625 34.2656 68.4375 34.1094C68.8125 33.9219 69.1719 33.75 69.5156 33.5938C70.4531 33.1875 71.4062 32.8281 72.375 32.5156C73.375 32.2031 74.3906 31.9688 75.4219 31.8125C75.7344 31.5625 76.0781 31.3281 76.4531 31.1094C76.8281 30.8906 77.2031 30.7812 77.5781 30.7812C77.8594 30.7812 78.0938 30.8281 78.2812 30.9219C78.8125 30.6094 79.4375 30.3281 80.1562 30.0781C80.875 29.8281 81.5469 29.7344 82.1719 29.7969C82.3281 29.5781 82.5156 29.4375 82.7344 29.375C82.9531 29.2812 83.1875 29.2344 83.4375 29.2344C83.5625 29.2344 83.6719 29.25 83.7656 29.2812C83.8906 29.2812 84.0312 29.2812 84.1875 29.2812C84.5 29.0625 84.8438 28.9062 85.2188 28.8125C85.5938 28.7188 85.9688 28.6406 86.3438 28.5781C86.7188 28.5156 87.0781 28.4375 87.4219 28.3438C87.7969 28.2188 88.125 28.0312 88.4062 27.7812C88.8438 27.8125 89.1875 27.9375 89.4375 28.1562C89.7188 28.375 89.9531 28.6406 90.1406 28.9531C90.3281 29.2656 90.4844 29.5938 90.6094 29.9375C90.7344 30.2812 90.8906 30.6094 91.0781 30.9219C91.0156 31.1719 90.9219 31.375 90.7969 31.5312C90.6719 31.6562 90.5312 31.7812 90.375 31.9062C90.2188 32.0312 90.0781 32.1562 89.9531 32.2812C89.8281 32.4062 89.75 32.5781 89.7188 32.7969C88.625 32.7969 87.5625 32.9531 86.5312 33.2656C85.5312 33.5781 84.5312 33.9375 83.5312 34.3438C82.5625 34.75 81.5625 35.1406 80.5312 35.5156C79.5312 35.8594 78.5 36.0781 77.4375 36.1719C77.2812 36.3281 77.0781 36.4531 76.8281 36.5469L76.125 36.7812C75.9062 36.8438 75.7031 36.9375 75.5156 37.0625C75.3281 37.1562 75.1875 37.3125 75.0938 37.5312C74.9062 37.4375 74.7031 37.3906 74.4844 37.3906C73.9531 37.3906 73.4375 37.5312 72.9375 37.8125C72.4375 38.0938 71.875 38.2344 71.25 38.2344C71 38.2344 70.8281 38.2188 70.7344 38.1875C70.5781 38.4688 70.3438 38.6719 70.0312 38.7969C69.75 38.9219 69.4375 39.0312 69.0938 39.125C68.7812 39.1875 68.4688 39.2812 68.1562 39.4062C67.875 39.5312 67.6562 39.75 67.5 40.0625C67.4062 40.0312 67.2969 40.0156 67.1719 40.0156H66.8906C66.3906 40.0156 65.8125 40.1094 65.1562 40.2969C64.5312 40.4531 64.0781 40.7656 63.7969 41.2344C63.5469 41.1719 63.3281 41.1406 63.1406 41.1406C62.7031 41.1406 62.3125 41.2344 61.9688 41.4219C61.625 41.5781 61.2812 41.7656 60.9375 41.9844L59.9062 42.6406C59.5625 42.8594 59.1875 43.0156 58.7812 43.1094C57.9688 44.2656 57.4062 45.5938 57.0938 47.0938C56.7812 48.5938 56.5469 50.1562 56.3906 51.7812C56.2656 53.4062 56.1406 55.0156 56.0156 56.6094C55.8906 58.2344 55.6406 59.7188 55.2656 61.0625C55.4531 61.5625 55.5938 62.0938 55.6875 62.6562C55.7812 63.2188 55.8594 63.7812 55.9219 64.3438C55.9844 64.9375 56.0469 65.5312 56.1094 66.125C56.1719 66.7188 56.2812 67.2812 56.4375 67.8125C56.5938 68.4688 56.8906 69.0469 57.3281 69.5469C57.7969 70.0781 58.125 70.6719 58.3125 71.3281C58.4688 71.3594 58.625 71.375 58.7812 71.375C58.9688 71.4062 59.1562 71.4219 59.3438 71.4219C60.4688 71.4219 61.4531 71.2031 62.2969 70.7656C63.1719 70.3281 63.9844 69.7812 64.7344 69.125C65.4844 68.5 66.2031 67.8125 66.8906 67.0625C67.6094 66.3438 68.375 65.7031 69.1875 65.1406H70.0781C70.2969 64.8906 70.4844 64.625 70.6406 64.3438C70.7969 64.0625 70.9688 63.7969 71.1562 63.5469C71.3438 63.2969 71.5625 63.0781 71.8125 62.8906C72.0625 62.7344 72.375 62.625 72.75 62.5625C72.8438 62.0938 73.0625 61.7344 73.4062 61.4844C73.75 61.2344 73.9844 60.8594 74.1094 60.3594C74.1719 60.3906 74.25 60.4062 74.3438 60.4062C74.5938 60.4062 74.7812 60.3438 74.9062 60.2188L75.6094 59.5625C75.8594 59.3125 76.125 59.0625 76.4062 58.8125C76.7188 58.5938 77.0156 58.375 77.2969 58.1562C78.2031 57.5 79.1094 56.8438 80.0156 56.1875C80.9219 55.5625 81.75 54.8281 82.5 53.9844C82.5312 54.0156 82.5781 54.0312 82.6406 54.0312C82.8906 54.0312 83.0625 53.9531 83.1562 53.7969C83.25 53.6406 83.4688 53.5938 83.8125 53.6562C84 53.375 84.1719 53.0938 84.3281 52.8125C84.4844 52.5 84.6094 52.1719 84.7031 51.8281L86.2031 52.0156C86.7031 52.0781 87.2031 52.1094 87.7031 52.1094C87.8594 52.1094 88 52.1094 88.125 52.1094C88.2812 52.0781 88.4219 52.0312 88.5469 51.9688C88.9219 52.5625 89.125 53.2031 89.1562 53.8906C89.1875 54.5469 89.2656 55.2031 89.3906 55.8594C89.3281 55.8594 89.2812 55.8594 89.25 55.8594C89.25 55.8281 89.2188 55.8125 89.1562 55.8125C89 55.8125 88.8438 55.875 88.6875 56C88.5625 56.0938 88.4219 56.2188 88.2656 56.375L87.7969 56.8438C87.6406 57 87.5 57.125 87.375 57.2188C87.0312 57.4375 86.6719 57.625 86.2969 57.7812C85.9219 57.9688 85.5625 58.1562 85.2188 58.3438C84.875 58.5312 84.5469 58.75 84.2344 59C83.9219 59.2812 83.6719 59.625 83.4844 60.0312C82.8594 60.2812 82.25 60.5469 81.6562 60.8281C81.0938 61.1094 80.5469 61.4062 80.0156 61.7188C79.8594 61.875 79.7188 62.0312 79.5938 62.1875C79.4688 62.3438 79.375 62.5156 79.3125 62.7031C78.4688 62.9844 77.7656 63.4062 77.2031 63.9688C76.6719 64.5312 76.125 65.1406 75.5625 65.7969L75.5156 65.75C75.2969 65.75 75.1562 65.8281 75.0938 65.9844C75.0625 66.1406 74.8906 66.1875 74.5781 66.125C73.9844 66.7812 73.3594 67.3906 72.7031 67.9531C72.0469 68.5156 71.375 69.0781 70.6875 69.6406C70 70.2031 69.3125 70.7656 68.625 71.3281C67.9375 71.9219 67.2969 72.5469 66.7031 73.2031C66.2969 73.3281 65.9062 73.4844 65.5312 73.6719C65.1562 73.8594 64.875 74.1406 64.6875 74.5156H64.5469C64.2031 74.5156 63.9531 74.5938 63.7969 74.75C63.6719 74.9062 63.5156 75.1094 63.3281 75.3594C62.6719 75.5156 62 75.6875 61.3125 75.875C60.625 76.0625 59.9219 76.1562 59.2031 76.1562C58.7031 76.1562 58.2188 76.0625 57.75 75.875C57.3125 75.6875 56.875 75.4375 56.4375 75.125C56.0312 74.8438 55.6406 74.5312 55.2656 74.1875C54.9219 73.8438 54.5938 73.5156 54.2812 73.2031C54.0938 72.5781 53.8438 71.9219 53.5312 71.2344C53.25 70.5781 53.1094 69.9375 53.1094 69.3125C53.1094 69.1562 53.125 69 53.1562 68.8438C53.2188 68.7188 53.25 68.5938 53.25 68.4688C53.25 68.25 53.1719 68.1562 53.0156 68.1875C52.8906 68.2188 52.7969 68.1406 52.7344 67.9531C52.6719 67.6406 52.625 67.2812 52.5938 66.875C52.5938 66.5 52.5625 66.1406 52.5 65.7969C52.4062 65.0781 52.2812 64.3438 52.125 63.5938C52 62.8438 51.8594 62.1094 51.7031 61.3906C51.8281 61.3281 51.9219 61.2188 51.9844 61.0625C52.0781 60.9375 52.1719 60.8125 52.2656 60.6875C52.1719 60.4375 52.0781 60.1562 51.9844 59.8438C51.9219 59.5625 51.8906 59.2656 51.8906 58.9531C51.8906 58.3281 52.125 57.8594 52.5938 57.5469C52.5938 57.3281 52.5312 57.1562 52.4062 57.0312C52.3125 56.9375 52.2656 56.7656 52.2656 56.5156C52.2656 56.4531 52.2812 56.2812 52.3125 56C52.375 55.6875 52.4375 55.3438 52.5 54.9688C52.5938 54.5938 52.6719 54.2344 52.7344 53.8906C52.7969 53.5469 52.8438 53.3125 52.875 53.1875C53.0938 51.75 53.2812 50.3438 53.4375 48.9688C53.5938 47.5625 53.8125 46.1562 54.0938 44.75C53.7812 44.5 53.375 44.3125 52.875 44.1875C52.4062 44.0312 52.0781 43.8281 51.8906 43.5781C51.7344 43.3594 51.6094 43.0781 51.5156 42.7344C51.4219 42.3906 51.375 42.0938 51.375 41.8438C51.375 40.9375 51.7344 40.2188 52.4531 39.6875C53.1719 39.125 53.9375 38.7969 54.75 38.7031C55.1562 37.6094 55.4531 36.5 55.6406 35.375C55.8594 34.2188 56.0312 33.0625 56.1562 31.9062L56.5312 28.3906C56.6562 27.2031 56.8438 26.0312 57.0938 24.875H56.8125C56.1875 24.875 55.5781 24.9688 54.9844 25.1562C54.3906 25.3438 53.7812 25.4375 53.1562 25.4375H53.0625C52.1562 24.7188 51.7031 23.8594 51.7031 22.8594C51.7031 22.2656 51.8281 21.6719 52.0781 21.0781C52.5781 20.8906 53.0312 20.6406 53.4375 20.3281C53.8438 20.0156 54.25 19.7031 54.6562 19.3906C55.0938 19.0469 55.5312 18.75 55.9688 18.5C56.4062 18.25 56.8906 18.0938 57.4219 18.0312C57.4844 17.125 57.6406 16.2188 57.8906 15.3125C58.1406 14.4062 58.2656 13.5 58.2656 12.5938C58.2656 12.4062 58.25 12.2188 58.2188 12.0312C58.2188 11.8438 58.1875 11.6562 58.125 11.4688C58.3438 11.1875 58.4844 10.8906 58.5469 10.5781C58.6406 10.2656 58.6875 9.9375 58.6875 9.59375C58.6875 9.21875 58.6562 8.85938 58.5938 8.51562C58.5625 8.14062 58.5156 7.78125 58.4531 7.4375C58.7344 7.3125 58.9531 7.1875 59.1094 7.0625C59.2656 6.90625 59.4062 6.76563 59.5312 6.64062C59.6875 6.51562 59.875 6.40625 60.0938 6.3125C60.3125 6.21875 60.625 6.17188 61.0312 6.17188C61.625 6.17188 62.125 6.29688 62.5312 6.54688C62.9688 6.76563 63.3438 7.0625 63.6562 7.4375C63.9688 7.8125 64.2344 8.23438 64.4531 8.70312C64.7031 9.17188 64.9375 9.64062 65.1562 10.1094C65.0938 10.4531 64.9531 10.7031 64.7344 10.8594C64.5156 11.0156 64.3281 11.2188 64.1719 11.4688C64.2344 11.9688 64.2969 12.4531 64.3594 12.9219C64.4219 13.3594 64.4219 13.8281 64.3594 14.3281C64.6719 14.4844 64.9688 14.5625 65.25 14.5625C65.7188 14.5625 66.1406 14.4375 66.5156 14.1875C66.9219 13.9375 67.2031 13.5938 67.3594 13.1562H67.4531C67.5469 13.1562 67.625 13.1875 67.6875 13.25C67.7812 13.3125 67.8906 13.3438 68.0156 13.3438H68.2031C68.5469 13.0312 68.9219 12.7969 69.3281 12.6406C69.7344 12.4531 70.1562 12.2812 70.5938 12.125C71.0312 11.9688 71.4531 11.8125 71.8594 11.6562C72.2969 11.4688 72.7031 11.2344 73.0781 10.9531C73.2656 11.0469 73.4688 11.0938 73.6875 11.0938C74 11.0938 74.2969 11.0312 74.5781 10.9062C74.8906 10.7812 75.1875 10.6562 75.4688 10.5312C75.75 10.375 76.0469 10.2344 76.3594 10.1094C76.7031 9.98438 77.0625 9.92188 77.4375 9.92188C77.5 9.92188 77.5781 9.9375 77.6719 9.96875C77.7656 9.96875 77.8438 9.96875 77.9062 9.96875C78.125 9.96875 78.25 9.89062 78.2812 9.73438C78.3125 9.57812 78.3125 9.4375 78.2812 9.3125C79.2812 9.0625 80.1406 8.78125 80.8594 8.46875C81.6094 8.125 82.4375 7.73437 83.3438 7.29688C83.3438 7.26562 83.375 7.25 83.4375 7.25C83.5312 7.25 83.5938 7.29688 83.625 7.39062C83.6562 7.48438 83.6719 7.5625 83.6719 7.625C83.8594 7.53125 83.9531 7.375 83.9531 7.15625C83.9844 6.9375 84.0625 6.75 84.1875 6.59375C84.3125 6.625 84.4844 6.64062 84.7031 6.64062C84.9844 6.64062 85.2656 6.57813 85.5469 6.45312C85.8594 6.32812 86.1562 6.1875 86.4375 6.03125C86.7188 5.875 87 5.73438 87.2812 5.60938C87.5625 5.48437 87.8438 5.42188 88.125 5.42188C88.375 5.42188 88.5781 5.48437 88.7344 5.60938C88.9219 5.51562 89.1094 5.39062 89.2969 5.23438C89.4844 5.04688 89.6875 4.95312 89.9062 4.95312C89.9688 4.95312 90.0156 4.96875 90.0469 5C90.1094 5.03125 90.1719 5.0625 90.2344 5.09375C90.3906 4.9375 90.5312 4.8125 90.6562 4.71875C90.8125 4.625 90.8906 4.46875 90.8906 4.25C92.0469 4.125 93.1094 3.875 94.0781 3.5C95.0781 3.09375 96.0312 2.5625 96.9375 1.90625C97.2812 1.96875 97.6094 2.04688 97.9219 2.14062C98.2656 2.20312 98.6094 2.23438 98.9531 2.23438C99.1406 2.57812 99.3125 2.92188 99.4688 3.26562C99.625 3.60937 99.9688 3.76563 100.5 3.73438C100.531 3.89062 100.547 4.0625 100.547 4.25C100.578 4.4375 100.594 4.60938 100.594 4.76562ZM141.562 45.2656C141.562 45.8906 141.453 46.4062 141.234 46.8125C141.047 47.1875 140.828 47.625 140.578 48.125C140.516 48.0938 140.438 48.0781 140.344 48.0781C140.156 48.0781 139.984 48.125 139.828 48.2188C139.672 48.3125 139.516 48.3906 139.359 48.4531C138.453 49.4531 137.516 50.4219 136.547 51.3594C135.609 52.2969 134.562 53.125 133.406 53.8438C133.094 54.0312 132.781 54.2188 132.469 54.4062C132.156 54.5625 131.828 54.7188 131.484 54.875C131.359 54.9375 131.234 55 131.109 55.0625C131.016 55.0938 130.922 55.1406 130.828 55.2031C130.609 55.3281 130.375 55.5312 130.125 55.8125C129.906 56.0938 129.641 56.375 129.328 56.6562C129.047 56.9688 128.734 57.2188 128.391 57.4062C128.047 57.625 127.672 57.7188 127.266 57.6875C127.016 57.8438 126.797 58.0469 126.609 58.2969C126.422 58.5469 126.203 58.7969 125.953 59.0469C124.609 59.5156 123.375 60.125 122.25 60.875C121.156 61.6562 120.016 62.4062 118.828 63.125C118.109 63.5938 117.391 63.9688 116.672 64.25C116.516 64.3125 116.328 64.3594 116.109 64.3906C115.922 64.4219 115.719 64.4688 115.5 64.5312C114.469 64.7812 113.422 64.9844 112.359 65.1406C111.328 65.2969 110.281 65.375 109.219 65.375C107.906 65.375 106.641 65.2188 105.422 64.9062C105.422 64.8125 105.391 64.75 105.328 64.7188C105.266 64.6875 105.188 64.6562 105.094 64.625C105.031 64.5938 104.969 64.5469 104.906 64.4844C104.844 64.4531 104.844 64.375 104.906 64.25C104.219 64.1875 103.609 64.0156 103.078 63.7344C102.578 63.4531 102.25 62.9531 102.094 62.2344C102 62.2969 101.922 62.375 101.859 62.4688C101.797 62.5625 101.688 62.5938 101.531 62.5625C101.094 61.9375 100.609 61.3594 100.078 60.8281C99.5469 60.2969 99.1562 59.6562 98.9062 58.9062C98.8438 58.75 98.7969 58.5938 98.7656 58.4375C98.7656 58.3125 98.75 58.1719 98.7188 58.0156C98.5625 57.5781 98.2812 57.3594 97.875 57.3594C97.9375 57.2344 97.9688 57.0781 97.9688 56.8906C97.9688 56.7969 97.9531 56.7031 97.9219 56.6094C97.9219 56.5156 97.9219 56.4219 97.9219 56.3281C97.9219 56.1719 97.9688 56.0156 98.0625 55.8594C97.75 55.1406 97.5312 54.4375 97.4062 53.75C97.2812 53.0312 97.2188 52.2969 97.2188 51.5469C97.2188 50.5781 97.2656 49.625 97.3594 48.6875C97.4531 47.7188 97.5 46.75 97.5 45.7812C97.6875 45.4062 97.8281 44.9688 97.9219 44.4688C98.0469 43.9688 98.25 43.5625 98.5312 43.25C98.5 43.0625 98.4375 42.9688 98.3438 42.9688C98.25 42.9375 98.2031 42.8438 98.2031 42.6875C98.2031 42.125 98.3125 41.5156 98.5312 40.8594C98.75 40.2031 98.8594 39.5312 98.8594 38.8438C99.1406 38.6875 99.3125 38.4531 99.375 38.1406C99.4688 37.8281 99.6406 37.5781 99.8906 37.3906V37.1562C99.8906 36.6875 99.9375 36.2188 100.031 35.75C100.156 35.2812 100.266 34.8281 100.359 34.3906C100.484 33.9219 100.578 33.4688 100.641 33.0312C100.734 32.5625 100.766 32.1094 100.734 31.6719C100.797 31.5781 100.875 31.4062 100.969 31.1562C101.094 30.875 101.203 30.5938 101.297 30.3125C101.422 30 101.516 29.7031 101.578 29.4219C101.672 29.1406 101.719 28.9375 101.719 28.8125C101.719 28.625 101.688 28.4531 101.625 28.2969C101.562 28.1406 101.531 27.9688 101.531 27.7812C101.531 27.625 101.578 27.4062 101.672 27.125C101.766 26.8125 101.844 26.5625 101.906 26.375C102.031 25.8438 102.141 25.2969 102.234 24.7344C102.359 24.1406 102.469 23.5781 102.562 23.0469C102.844 21.3281 103.047 19.6094 103.172 17.8906C103.297 16.1406 103.375 14.3906 103.406 12.6406C103.844 12.3906 104.297 12.1562 104.766 11.9375C105.266 11.7188 105.781 11.6094 106.312 11.6094C106.469 11.6094 106.625 11.625 106.781 11.6562C106.938 11.6875 107.094 11.7344 107.25 11.7969C107.406 12.4219 107.656 12.9219 108 13.2969C108.344 13.6719 108.656 14.125 108.938 14.6562C108.75 15.1562 108.625 15.6719 108.562 16.2031L108.422 17.7969C108.391 18.3281 108.328 18.8594 108.234 19.3906C108.141 19.8906 107.984 20.375 107.766 20.8438C107.828 21 107.859 21.1562 107.859 21.3125V21.7812C107.859 22.2188 107.812 22.6406 107.719 23.0469C107.656 23.4531 107.578 23.875 107.484 24.3125C107.391 24.7188 107.312 25.125 107.25 25.5312C107.188 25.9375 107.188 26.3438 107.25 26.75C107.156 26.9062 107.062 27.0312 106.969 27.125C106.875 27.1875 106.812 27.2969 106.781 27.4531L106.688 28.3438C106.625 28.6875 106.562 29.0312 106.5 29.375C106.469 29.6875 106.422 30.0156 106.359 30.3594C106.141 31.2969 105.891 32.2344 105.609 33.1719C105.359 34.1094 105.234 35.0781 105.234 36.0781V36.3594C104.953 36.7969 104.734 37.3438 104.578 38C104.422 38.625 104.375 39.2031 104.438 39.7344C104.094 40.6406 103.766 41.5312 103.453 42.4062C103.141 43.2812 102.984 44.1875 102.984 45.125C102.984 45.2812 102.984 45.4531 102.984 45.6406C103.016 45.7969 103.047 45.9531 103.078 46.1094C102.828 46.7344 102.672 47.375 102.609 48.0312C102.547 48.6562 102.516 49.2812 102.516 49.9062C102.516 50.3438 102.531 50.8594 102.562 51.4531C102.625 52.0156 102.703 52.6094 102.797 53.2344C102.922 53.8281 103.062 54.4062 103.219 54.9688C103.375 55.5312 103.547 55.9844 103.734 56.3281C104.453 57.4844 105.391 58.3906 106.547 59.0469C107.734 59.7344 108.984 60.1719 110.297 60.3594C110.828 60.1719 111.25 60.0625 111.562 60.0312C111.906 60 112.375 60 112.969 60.0312C113.469 59.7812 113.969 59.5938 114.469 59.4688C115 59.3438 115.531 59.2031 116.062 59.0469C116.219 58.9844 116.375 58.9219 116.531 58.8594C116.719 58.7969 116.875 58.7344 117 58.6719C117.156 58.6094 117.328 58.4688 117.516 58.25C117.703 58.0312 117.875 57.8438 118.031 57.6875C118.688 57.5 119.312 57.2344 119.906 56.8906C120.5 56.5781 121.078 56.25 121.641 55.9062L123.375 54.875C123.969 54.5312 124.594 54.2344 125.25 53.9844C125.5 53.8906 125.641 53.7656 125.672 53.6094C125.734 53.4219 125.828 53.2031 125.953 52.9531C126.016 53.0156 126.109 53.0469 126.234 53.0469C126.609 53.0469 126.875 52.9375 127.031 52.7188C127.188 52.4688 127.375 52.2188 127.594 51.9688C128 51.9062 128.391 51.7969 128.766 51.6406C129.141 51.4531 129.422 51.1719 129.609 50.7969C130.391 50.6406 131.078 50.3594 131.672 49.9531C132.266 49.5469 132.844 49.1094 133.406 48.6406C133.969 48.1406 134.531 47.6719 135.094 47.2344C135.656 46.7656 136.297 46.3906 137.016 46.1094C137.109 45.9531 137.172 45.8125 137.203 45.6875C137.234 45.5625 137.281 45.4219 137.344 45.2656C137.875 45.2031 138.297 45.0625 138.609 44.8438C138.922 44.5938 139.281 44.3438 139.688 44.0938C140.562 44.1875 141.188 44.5781 141.562 45.2656ZM150.422 58.3438C150.422 58.8438 150.25 59.2969 149.906 59.7031C149.562 60.1094 149.266 60.5 149.016 60.875C148.578 61.0938 148.156 61.2188 147.75 61.25C147.375 61.3125 146.969 61.4219 146.531 61.5781C146.375 61.6094 146.203 61.7188 146.016 61.9062C145.766 61.875 145.516 61.7656 145.266 61.5781C145.016 61.4219 144.766 61.3125 144.516 61.25C144.172 61.125 143.719 61.0469 143.156 61.0156C142.625 60.9844 142.234 60.8281 141.984 60.5469C141.547 60.1094 141.172 59.5312 140.859 58.8125C140.578 58.0938 140.344 57.3281 140.156 56.5156C140 55.7031 139.875 54.9062 139.781 54.125C139.719 53.3125 139.688 52.6094 139.688 52.0156C139.688 51.0156 139.75 50.0156 139.875 49.0156C140 48.0156 140.188 47.0469 140.438 46.1094V45.875C140.438 45.7188 140.438 45.5938 140.438 45.5C140.469 45.375 140.484 45.2344 140.484 45.0781C140.484 44.9844 140.469 44.8906 140.438 44.7969C140.438 44.7031 140.391 44.625 140.297 44.5625C140.703 43.5312 141 42.4688 141.188 41.375C141.375 40.2812 141.516 39.1875 141.609 38.0938C141.734 36.9688 141.859 35.8594 141.984 34.7656C142.141 33.6406 142.359 32.5469 142.641 31.4844C142.609 31.2969 142.578 31.0938 142.547 30.875C142.547 30.6562 142.547 30.4531 142.547 30.2656C142.547 29.7031 142.609 29.1562 142.734 28.625C142.859 28.0625 142.938 27.4844 142.969 26.8906C143 26.7031 143 26.5156 142.969 26.3281C142.938 26.1094 142.922 25.8906 142.922 25.6719C142.922 24.2969 142.984 22.9531 143.109 21.6406C143.266 20.3281 143.344 19 143.344 17.6562C143.344 16.9375 143.281 16.25 143.156 15.5938C143.062 14.9062 143.016 14.2188 143.016 13.5312C143.016 13.2188 143.031 12.9219 143.062 12.6406C143.094 12.3281 143.188 12.0469 143.344 11.7969C144.031 11.3281 144.844 11.0938 145.781 11.0938C146.469 11.0938 147.062 11.2812 147.562 11.6562C147.531 11.7188 147.516 11.8125 147.516 11.9375C147.516 12.0938 147.531 12.2344 147.562 12.3594C147.594 12.4844 147.609 12.625 147.609 12.7812V12.9688C147.609 13.0312 147.594 13.0938 147.562 13.1562C147.781 13.5312 147.922 13.9375 147.984 14.375C148.078 14.7812 148.125 15.2031 148.125 15.6406C148.125 16.0469 148.109 16.4531 148.078 16.8594C148.047 17.2344 148.031 17.625 148.031 18.0312C148.031 18.5938 148.031 19.1562 148.031 19.7188C148.062 20.2812 148.078 20.8438 148.078 21.4062C148.078 22.9062 148 24.3906 147.844 25.8594C147.719 27.2969 147.625 28.7656 147.562 30.2656C147.5 31.5469 147.328 32.7969 147.047 34.0156C146.797 35.2344 146.625 36.4688 146.531 37.7188C146.5 37.9688 146.484 38.2188 146.484 38.4688C146.516 38.6875 146.531 38.9375 146.531 39.2188C146.531 39.9375 146.391 40.6562 146.109 41.375C145.828 42.0625 145.688 42.7969 145.688 43.5781C145.688 43.9531 145.75 44.2812 145.875 44.5625C145.688 45.0625 145.516 45.6562 145.359 46.3438C145.234 47.0312 145.109 47.75 144.984 48.5C144.891 49.2188 144.812 49.9375 144.75 50.6562C144.688 51.3438 144.656 51.9531 144.656 52.4844C144.656 53.2344 144.75 54 144.938 54.7812C145.125 55.5312 145.438 56.2188 145.875 56.8438C146.188 56.9375 146.562 56.9844 147 56.9844C147.438 56.9844 147.875 57 148.312 57.0312C148.75 57.0625 149.156 57.1406 149.531 57.2656C149.906 57.3906 150.188 57.6406 150.375 58.0156C150.406 58.0781 150.422 58.1406 150.422 58.2031V58.3438ZM192.75 54.2656C192.75 54.5781 192.734 54.8125 192.703 54.9688C192.547 55.0312 192.422 55.125 192.328 55.25C192.234 55.3438 192.078 55.375 191.859 55.3438C191.797 55.8125 191.641 56.2031 191.391 56.5156C191.141 56.8281 190.875 57.1094 190.594 57.3594C190.344 57.6406 190.094 57.9219 189.844 58.2031C189.594 58.5156 189.438 58.9062 189.375 59.375C188.906 59.625 188.438 59.9531 187.969 60.3594C187.531 60.7969 187.141 61.0938 186.797 61.25C186.547 61.375 186.281 61.4688 186 61.5312C185.719 61.625 185.438 61.7344 185.156 61.8594C184.25 62.2656 183.312 62.6875 182.344 63.125C181.406 63.5625 180.422 63.7812 179.391 63.7812H179.062C178.938 63.9062 178.781 63.9844 178.594 64.0156C178.406 64.0781 178.219 64.125 178.031 64.1562C177.844 64.1875 177.656 64.2344 177.469 64.2969C177.281 64.3594 177.141 64.4531 177.047 64.5781C176.703 64.4531 176.328 64.3906 175.922 64.3906H175.594C175.062 64.5156 174.562 64.6094 174.094 64.6719C173.625 64.7344 173.125 64.7656 172.594 64.7656C171.656 64.7656 170.719 64.7031 169.781 64.5781C168.844 64.4531 167.906 64.3438 166.969 64.25C166.375 63.7812 165.891 63.1875 165.516 62.4688C165.141 61.7812 164.953 61.0469 164.953 60.2656C164.953 59.6719 165.078 59.1094 165.328 58.5781C165.578 58.0781 165.906 57.625 166.312 57.2188H166.453C166.734 57.2188 167.016 57.1562 167.297 57.0312C167.609 56.9062 167.906 56.8438 168.188 56.8438C168.5 56.8438 168.75 56.9688 168.938 57.2188C169.156 57.4688 169.312 57.7656 169.406 58.1094C169.531 58.4531 169.609 58.7969 169.641 59.1406C169.672 59.5156 169.688 59.8125 169.688 60.0312C170.031 60.1875 170.391 60.2812 170.766 60.3125C171.172 60.3438 171.578 60.3594 171.984 60.3594C172.391 60.3594 172.844 60.3281 173.344 60.2656C173.844 60.2344 174.344 60.1562 174.844 60.0312C175.375 59.9375 175.875 59.8125 176.344 59.6562C176.844 59.5 177.266 59.2969 177.609 59.0469C179.328 58.8906 180.844 58.5 182.156 57.875C183.469 57.25 184.859 56.5156 186.328 55.6719C186.391 55.3281 186.516 55.0625 186.703 54.875C186.922 54.6562 187.031 54.3438 187.031 53.9375C187.031 53.875 187.016 53.8125 186.984 53.75C186.984 53.6562 186.984 53.5781 186.984 53.5156C186.359 52.7344 185.703 52.0469 185.016 51.4531C184.359 50.8594 183.5 50.4688 182.438 50.2812C182.312 50 182.109 49.7969 181.828 49.6719C181.547 49.5156 181.25 49.375 180.938 49.25C180.625 49.125 180.328 49 180.047 48.875C179.766 48.7188 179.562 48.4688 179.438 48.125C178.594 47.9688 177.719 47.7812 176.812 47.5625C175.938 47.3125 175.188 46.875 174.562 46.25C174.062 46.2188 173.578 46.125 173.109 45.9688C172.672 45.7812 172.234 45.6094 171.797 45.4531C171.359 45.2656 170.906 45.1094 170.438 44.9844C169.969 44.8281 169.484 44.75 168.984 44.75C168.859 44.5312 168.688 44.3594 168.469 44.2344C168.25 44.1094 168 44 167.719 43.9062C167.469 43.8125 167.219 43.7188 166.969 43.625C166.75 43.5 166.578 43.3281 166.453 43.1094C166.328 43.1406 166.234 43.2031 166.172 43.2969C166.109 43.3906 166 43.4375 165.844 43.4375H165.656C165.594 43.25 165.469 43.125 165.281 43.0625C165.094 42.9688 164.984 42.7969 164.953 42.5469C164.391 42.5156 163.875 42.4062 163.406 42.2188C162.969 42.0312 162.547 41.8281 162.141 41.6094C161.766 41.3594 161.375 41.125 160.969 40.9062C160.562 40.6875 160.109 40.5156 159.609 40.3906C159.297 40.1406 159 39.875 158.719 39.5938C158.469 39.2812 158.141 39.125 157.734 39.125C157.641 39.125 157.469 39.1562 157.219 39.2188C157.156 38.6562 156.922 38.2656 156.516 38.0469C156.109 37.7969 155.672 37.5781 155.203 37.3906C154.891 36.5781 154.469 35.8594 153.938 35.2344C153.406 34.6094 152.828 34.0312 152.203 33.5C152.266 33.3125 152.297 33.1719 152.297 33.0781C152.297 32.7656 152.219 32.5 152.062 32.2812C151.906 32.0312 151.734 31.8281 151.547 31.6719C151.109 30.2656 150.891 28.8906 150.891 27.5469C150.891 25.6719 151.312 23.9375 152.156 22.3438C152.969 20.7188 154.266 19.5 156.047 18.6875C156.078 18.4375 156.156 18.2188 156.281 18.0312C156.438 17.8438 156.531 17.625 156.562 17.375C156.844 17.375 157.062 17.3125 157.219 17.1875C157.375 17.0625 157.516 16.9375 157.641 16.8125C157.797 16.6562 157.953 16.5156 158.109 16.3906C158.266 16.2656 158.469 16.1875 158.719 16.1562C159.906 15.125 161.172 14.2969 162.516 13.6719C163.859 13.0156 165.234 12.3438 166.641 11.6562C166.922 11.5312 167.156 11.2969 167.344 10.9531H167.625C167.938 10.9531 168.172 10.8906 168.328 10.7656C168.516 10.6094 168.781 10.5625 169.125 10.625C169.25 10.4375 169.406 10.3125 169.594 10.25C169.812 10.1875 170.016 10.1406 170.203 10.1094C170.422 10.0469 170.625 9.96875 170.812 9.875C171 9.78125 171.125 9.64062 171.188 9.45312H171.516C172.047 9.45312 172.562 9.375 173.062 9.21875C173.562 9.03125 174.062 8.82812 174.562 8.60938H174.891C175.516 8.60938 176.094 8.5 176.625 8.28125C177.188 8.03125 177.781 7.85938 178.406 7.76562C178.656 7.70313 178.906 7.6875 179.156 7.71875C179.406 7.75 179.656 7.76562 179.906 7.76562C180.062 7.76562 180.25 7.75 180.469 7.71875C180.688 7.6875 180.844 7.59375 180.938 7.4375H181.031C181.219 7.4375 181.328 7.5 181.359 7.625C181.391 7.75 181.484 7.8125 181.641 7.8125C181.859 7.8125 182.078 7.78125 182.297 7.71875C182.516 7.65625 182.734 7.625 182.953 7.625C183.891 7.625 184.812 7.71875 185.719 7.90625C186.656 8.09375 187.578 8.26562 188.484 8.42188C188.547 8.79688 188.703 9.0625 188.953 9.21875C189.234 9.375 189.531 9.51562 189.844 9.64062V9.82812C189.844 10.0781 189.906 10.2812 190.031 10.4375C189.906 10.875 189.688 11.2031 189.375 11.4219C189.062 11.6406 188.719 11.8281 188.344 11.9844C188.5 12.1094 188.594 12.2812 188.625 12.5C188.656 12.7188 188.672 12.9219 188.672 13.1094V13.6719L188.438 13.625C187.938 13.625 187.688 13.8594 187.688 14.3281C187.281 14.0781 186.828 13.9219 186.328 13.8594C185.859 13.7969 185.391 13.7656 184.922 13.7656C184.297 13.7656 183.641 13.7969 182.953 13.8594C182.266 13.8906 181.594 13.875 180.938 13.8125C180.688 14.125 180.375 14.3594 180 14.5156C179.625 14.6406 179.25 14.7031 178.875 14.7031C178.469 14.7031 178.078 14.625 177.703 14.4688C177.328 14.2812 177.062 14.0156 176.906 13.6719C176.75 13.6094 176.609 13.5781 176.484 13.5781H176.062C175.562 13.5781 175.062 13.6406 174.562 13.7656C174.094 13.8594 173.609 13.9844 173.109 14.1406C172.609 14.2656 172.109 14.4062 171.609 14.5625C171.141 14.6875 170.656 14.7656 170.156 14.7969C169.969 15.0469 169.719 15.2188 169.406 15.3125C169.094 15.4062 168.844 15.5781 168.656 15.8281C168 15.9531 167.406 16.1719 166.875 16.4844C166.344 16.7656 165.828 17.0781 165.328 17.4219L163.875 18.4062C163.406 18.7188 162.875 18.9844 162.281 19.2031C161.844 19.6719 161.438 20.0469 161.062 20.3281C160.688 20.6094 160.203 20.8594 159.609 21.0781C159.234 21.2031 159.016 21.3906 158.953 21.6406C158.922 21.8906 158.797 22.1406 158.578 22.3906C158.391 22.6094 158.156 22.7812 157.875 22.9062C157.625 23 157.406 23.1719 157.219 23.4219C157.062 23.6406 156.938 23.9062 156.844 24.2188C156.781 24.5 156.703 24.7812 156.609 25.0625C156.516 25.3438 156.406 25.625 156.281 25.9062C156.156 26.1562 155.969 26.375 155.719 26.5625C155.719 26.6875 155.703 26.8125 155.672 26.9375C155.672 27.0625 155.672 27.1719 155.672 27.2656C155.672 27.7031 155.719 28.1562 155.812 28.625C155.938 29.0625 156.016 29.5 156.047 29.9375C156.672 31.0312 157.406 32.0312 158.25 32.9375C159.094 33.8125 160 34.625 160.969 35.375C161.938 36.125 162.938 36.8281 163.969 37.4844C165.031 38.1406 166.078 38.7812 167.109 39.4062C167.484 39.375 167.828 39.4219 168.141 39.5469C168.453 39.6406 168.781 39.7031 169.125 39.7344C169.5 40.0156 169.938 40.2344 170.438 40.3906L171.938 40.8594C172.438 41.0156 172.922 41.2031 173.391 41.4219C173.859 41.6094 174.25 41.875 174.562 42.2188C174.719 42.25 174.859 42.2969 174.984 42.3594C175.109 42.3906 175.25 42.4062 175.406 42.4062C175.594 42.4062 175.703 42.3438 175.734 42.2188C177.141 42.75 178.516 43.3438 179.859 44C181.203 44.625 182.625 45.1094 184.125 45.4531C184.719 45.9531 185.375 46.3906 186.094 46.7656C186.812 47.1406 187.531 47.5312 188.25 47.9375C188.969 48.3125 189.656 48.7344 190.312 49.2031C190.969 49.6406 191.547 50.1719 192.047 50.7969C192.109 51.3906 192.234 51.9688 192.422 52.5312C192.641 53.0625 192.75 53.6406 192.75 54.2656ZM227.859 54.2656C227.859 54.5781 227.844 54.8125 227.812 54.9688C227.656 55.0312 227.531 55.125 227.438 55.25C227.344 55.3438 227.188 55.375 226.969 55.3438C226.906 55.8125 226.75 56.2031 226.5 56.5156C226.25 56.8281 225.984 57.1094 225.703 57.3594C225.453 57.6406 225.203 57.9219 224.953 58.2031C224.703 58.5156 224.547 58.9062 224.484 59.375C224.016 59.625 223.547 59.9531 223.078 60.3594C222.641 60.7969 222.25 61.0938 221.906 61.25C221.656 61.375 221.391 61.4688 221.109 61.5312C220.828 61.625 220.547 61.7344 220.266 61.8594C219.359 62.2656 218.422 62.6875 217.453 63.125C216.516 63.5625 215.531 63.7812 214.5 63.7812H214.172C214.047 63.9062 213.891 63.9844 213.703 64.0156C213.516 64.0781 213.328 64.125 213.141 64.1562C212.953 64.1875 212.766 64.2344 212.578 64.2969C212.391 64.3594 212.25 64.4531 212.156 64.5781C211.812 64.4531 211.438 64.3906 211.031 64.3906H210.703C210.172 64.5156 209.672 64.6094 209.203 64.6719C208.734 64.7344 208.234 64.7656 207.703 64.7656C206.766 64.7656 205.828 64.7031 204.891 64.5781C203.953 64.4531 203.016 64.3438 202.078 64.25C201.484 63.7812 201 63.1875 200.625 62.4688C200.25 61.7812 200.062 61.0469 200.062 60.2656C200.062 59.6719 200.188 59.1094 200.438 58.5781C200.688 58.0781 201.016 57.625 201.422 57.2188H201.562C201.844 57.2188 202.125 57.1562 202.406 57.0312C202.719 56.9062 203.016 56.8438 203.297 56.8438C203.609 56.8438 203.859 56.9688 204.047 57.2188C204.266 57.4688 204.422 57.7656 204.516 58.1094C204.641 58.4531 204.719 58.7969 204.75 59.1406C204.781 59.5156 204.797 59.8125 204.797 60.0312C205.141 60.1875 205.5 60.2812 205.875 60.3125C206.281 60.3438 206.688 60.3594 207.094 60.3594C207.5 60.3594 207.953 60.3281 208.453 60.2656C208.953 60.2344 209.453 60.1562 209.953 60.0312C210.484 59.9375 210.984 59.8125 211.453 59.6562C211.953 59.5 212.375 59.2969 212.719 59.0469C214.438 58.8906 215.953 58.5 217.266 57.875C218.578 57.25 219.969 56.5156 221.438 55.6719C221.5 55.3281 221.625 55.0625 221.812 54.875C222.031 54.6562 222.141 54.3438 222.141 53.9375C222.141 53.875 222.125 53.8125 222.094 53.75C222.094 53.6562 222.094 53.5781 222.094 53.5156C221.469 52.7344 220.812 52.0469 220.125 51.4531C219.469 50.8594 218.609 50.4688 217.547 50.2812C217.422 50 217.219 49.7969 216.938 49.6719C216.656 49.5156 216.359 49.375 216.047 49.25C215.734 49.125 215.438 49 215.156 48.875C214.875 48.7188 214.672 48.4688 214.547 48.125C213.703 47.9688 212.828 47.7812 211.922 47.5625C211.047 47.3125 210.297 46.875 209.672 46.25C209.172 46.2188 208.688 46.125 208.219 45.9688C207.781 45.7812 207.344 45.6094 206.906 45.4531C206.469 45.2656 206.016 45.1094 205.547 44.9844C205.078 44.8281 204.594 44.75 204.094 44.75C203.969 44.5312 203.797 44.3594 203.578 44.2344C203.359 44.1094 203.109 44 202.828 43.9062C202.578 43.8125 202.328 43.7188 202.078 43.625C201.859 43.5 201.688 43.3281 201.562 43.1094C201.438 43.1406 201.344 43.2031 201.281 43.2969C201.219 43.3906 201.109 43.4375 200.953 43.4375H200.766C200.703 43.25 200.578 43.125 200.391 43.0625C200.203 42.9688 200.094 42.7969 200.062 42.5469C199.5 42.5156 198.984 42.4062 198.516 42.2188C198.078 42.0312 197.656 41.8281 197.25 41.6094C196.875 41.3594 196.484 41.125 196.078 40.9062C195.672 40.6875 195.219 40.5156 194.719 40.3906C194.406 40.1406 194.109 39.875 193.828 39.5938C193.578 39.2812 193.25 39.125 192.844 39.125C192.75 39.125 192.578 39.1562 192.328 39.2188C192.266 38.6562 192.031 38.2656 191.625 38.0469C191.219 37.7969 190.781 37.5781 190.312 37.3906C190 36.5781 189.578 35.8594 189.047 35.2344C188.516 34.6094 187.938 34.0312 187.312 33.5C187.375 33.3125 187.406 33.1719 187.406 33.0781C187.406 32.7656 187.328 32.5 187.172 32.2812C187.016 32.0312 186.844 31.8281 186.656 31.6719C186.219 30.2656 186 28.8906 186 27.5469C186 25.6719 186.422 23.9375 187.266 22.3438C188.078 20.7188 189.375 19.5 191.156 18.6875C191.188 18.4375 191.266 18.2188 191.391 18.0312C191.547 17.8438 191.641 17.625 191.672 17.375C191.953 17.375 192.172 17.3125 192.328 17.1875C192.484 17.0625 192.625 16.9375 192.75 16.8125C192.906 16.6562 193.062 16.5156 193.219 16.3906C193.375 16.2656 193.578 16.1875 193.828 16.1562C195.016 15.125 196.281 14.2969 197.625 13.6719C198.969 13.0156 200.344 12.3438 201.75 11.6562C202.031 11.5312 202.266 11.2969 202.453 10.9531H202.734C203.047 10.9531 203.281 10.8906 203.438 10.7656C203.625 10.6094 203.891 10.5625 204.234 10.625C204.359 10.4375 204.516 10.3125 204.703 10.25C204.922 10.1875 205.125 10.1406 205.312 10.1094C205.531 10.0469 205.734 9.96875 205.922 9.875C206.109 9.78125 206.234 9.64062 206.297 9.45312H206.625C207.156 9.45312 207.672 9.375 208.172 9.21875C208.672 9.03125 209.172 8.82812 209.672 8.60938H210C210.625 8.60938 211.203 8.5 211.734 8.28125C212.297 8.03125 212.891 7.85938 213.516 7.76562C213.766 7.70313 214.016 7.6875 214.266 7.71875C214.516 7.75 214.766 7.76562 215.016 7.76562C215.172 7.76562 215.359 7.75 215.578 7.71875C215.797 7.6875 215.953 7.59375 216.047 7.4375H216.141C216.328 7.4375 216.438 7.5 216.469 7.625C216.5 7.75 216.594 7.8125 216.75 7.8125C216.969 7.8125 217.188 7.78125 217.406 7.71875C217.625 7.65625 217.844 7.625 218.062 7.625C219 7.625 219.922 7.71875 220.828 7.90625C221.766 8.09375 222.688 8.26562 223.594 8.42188C223.656 8.79688 223.812 9.0625 224.062 9.21875C224.344 9.375 224.641 9.51562 224.953 9.64062V9.82812C224.953 10.0781 225.016 10.2812 225.141 10.4375C225.016 10.875 224.797 11.2031 224.484 11.4219C224.172 11.6406 223.828 11.8281 223.453 11.9844C223.609 12.1094 223.703 12.2812 223.734 12.5C223.766 12.7188 223.781 12.9219 223.781 13.1094V13.6719L223.547 13.625C223.047 13.625 222.797 13.8594 222.797 14.3281C222.391 14.0781 221.938 13.9219 221.438 13.8594C220.969 13.7969 220.5 13.7656 220.031 13.7656C219.406 13.7656 218.75 13.7969 218.062 13.8594C217.375 13.8906 216.703 13.875 216.047 13.8125C215.797 14.125 215.484 14.3594 215.109 14.5156C214.734 14.6406 214.359 14.7031 213.984 14.7031C213.578 14.7031 213.188 14.625 212.812 14.4688C212.438 14.2812 212.172 14.0156 212.016 13.6719C211.859 13.6094 211.719 13.5781 211.594 13.5781H211.172C210.672 13.5781 210.172 13.6406 209.672 13.7656C209.203 13.8594 208.719 13.9844 208.219 14.1406C207.719 14.2656 207.219 14.4062 206.719 14.5625C206.25 14.6875 205.766 14.7656 205.266 14.7969C205.078 15.0469 204.828 15.2188 204.516 15.3125C204.203 15.4062 203.953 15.5781 203.766 15.8281C203.109 15.9531 202.516 16.1719 201.984 16.4844C201.453 16.7656 200.938 17.0781 200.438 17.4219L198.984 18.4062C198.516 18.7188 197.984 18.9844 197.391 19.2031C196.953 19.6719 196.547 20.0469 196.172 20.3281C195.797 20.6094 195.312 20.8594 194.719 21.0781C194.344 21.2031 194.125 21.3906 194.062 21.6406C194.031 21.8906 193.906 22.1406 193.688 22.3906C193.5 22.6094 193.266 22.7812 192.984 22.9062C192.734 23 192.516 23.1719 192.328 23.4219C192.172 23.6406 192.047 23.9062 191.953 24.2188C191.891 24.5 191.812 24.7812 191.719 25.0625C191.625 25.3438 191.516 25.625 191.391 25.9062C191.266 26.1562 191.078 26.375 190.828 26.5625C190.828 26.6875 190.812 26.8125 190.781 26.9375C190.781 27.0625 190.781 27.1719 190.781 27.2656C190.781 27.7031 190.828 28.1562 190.922 28.625C191.047 29.0625 191.125 29.5 191.156 29.9375C191.781 31.0312 192.516 32.0312 193.359 32.9375C194.203 33.8125 195.109 34.625 196.078 35.375C197.047 36.125 198.047 36.8281 199.078 37.4844C200.141 38.1406 201.188 38.7812 202.219 39.4062C202.594 39.375 202.938 39.4219 203.25 39.5469C203.562 39.6406 203.891 39.7031 204.234 39.7344C204.609 40.0156 205.047 40.2344 205.547 40.3906L207.047 40.8594C207.547 41.0156 208.031 41.2031 208.5 41.4219C208.969 41.6094 209.359 41.875 209.672 42.2188C209.828 42.25 209.969 42.2969 210.094 42.3594C210.219 42.3906 210.359 42.4062 210.516 42.4062C210.703 42.4062 210.812 42.3438 210.844 42.2188C212.25 42.75 213.625 43.3438 214.969 44C216.312 44.625 217.734 45.1094 219.234 45.4531C219.828 45.9531 220.484 46.3906 221.203 46.7656C221.922 47.1406 222.641 47.5312 223.359 47.9375C224.078 48.3125 224.766 48.7344 225.422 49.2031C226.078 49.6406 226.656 50.1719 227.156 50.7969C227.219 51.3906 227.344 51.9688 227.531 52.5312C227.75 53.0625 227.859 53.6406 227.859 54.2656ZM268.078 67.1562C267.984 67.6875 267.766 68.0625 267.422 68.2812C267.109 68.5312 266.812 68.875 266.531 69.3125H266.344C266.031 69.3125 265.719 69.3438 265.406 69.4062C265.125 69.4688 264.828 69.5469 264.516 69.6406C264.359 69.5781 264.172 69.5312 263.953 69.5C263.734 69.4688 263.594 69.3594 263.531 69.1719C263.281 69.2969 262.938 69.3594 262.5 69.3594C261.781 69.3594 261.094 69.1562 260.438 68.75C259.812 68.3438 259.156 68.0312 258.469 67.8125C258.281 67.4375 258.047 67.0938 257.766 66.7812C257.516 66.5 257.25 66.2188 256.969 65.9375C256.719 65.6562 256.469 65.3594 256.219 65.0469C255.969 64.7344 255.766 64.3594 255.609 63.9219C255.547 63.7344 255.469 63.625 255.375 63.5938C255.281 63.5625 255.141 63.5625 254.953 63.5938C254.984 63.25 254.938 62.9531 254.812 62.7031C254.719 62.4531 254.484 62.2969 254.109 62.2344C254.109 61.8281 254.047 61.4844 253.922 61.2031C253.797 60.9219 253.641 60.6719 253.453 60.4531C253.297 60.2656 253.109 60.0625 252.891 59.8438C252.703 59.625 252.547 59.3594 252.422 59.0469C252.141 58.9844 251.859 58.9375 251.578 58.9062C251.328 58.9062 251.047 58.9062 250.734 58.9062C249.234 58.9062 247.781 59.1875 246.375 59.75C246.219 59.8125 246.047 59.8906 245.859 59.9844C245.703 60.0781 245.547 60.1562 245.391 60.2188C245.328 60.2188 245.266 60.2188 245.203 60.2188C245.172 60.25 245.125 60.2656 245.062 60.2656C244.844 60.2656 244.641 60.2188 244.453 60.125C244.266 60.0625 244.062 60.0312 243.844 60.0312C243.75 60.0312 243.641 60.0469 243.516 60.0781C243.422 60.1406 243.328 60.1875 243.234 60.2188C242.766 60.375 242.328 60.4688 241.922 60.5C240.641 60.75 239.281 60.9375 237.844 61.0625C236.438 61.1875 235.141 61.5156 233.953 62.0469C233.703 62.1719 233.547 62.3594 233.484 62.6094C233.422 62.8906 233.406 63.1562 233.438 63.4062C233.094 63.6562 232.828 63.9844 232.641 64.3906C232.484 64.7969 232.328 65.2188 232.172 65.6562C232.047 66.125 231.906 66.5781 231.75 67.0156C231.594 67.4531 231.375 67.8281 231.094 68.1406C231.188 68.3281 231.234 68.5312 231.234 68.75C231.234 69.2188 231.078 69.6875 230.766 70.1562C230.453 70.625 230.219 71.0781 230.062 71.5156C229.906 71.9531 229.781 72.375 229.688 72.7812C229.594 73.2188 229.453 73.6094 229.266 73.9531C229.078 74.2969 228.828 74.5781 228.516 74.7969C228.172 75.0156 227.703 75.125 227.109 75.125C226.547 75.125 226.062 75.0156 225.656 74.7969C225.25 74.5781 224.922 74.2969 224.672 73.9531C224.422 73.6094 224.219 73.2031 224.062 72.7344C223.906 72.2656 223.781 71.7969 223.688 71.3281C224.031 70.6406 224.359 70.0469 224.672 69.5469C224.984 69.0469 225.219 68.4062 225.375 67.625C225.938 67.2188 226.359 66.7188 226.641 66.125C226.891 65.5625 227.031 64.9375 227.062 64.25C227.406 64.0312 227.656 63.7344 227.812 63.3594C227.938 63.0156 228.016 62.6406 228.047 62.2344C227.297 62.1719 226.516 62.1094 225.703 62.0469C224.859 61.9844 224.078 61.8281 223.359 61.5781C223.359 61.5156 223.375 61.4531 223.406 61.3906C223.406 61.3281 223.406 61.2656 223.406 61.2031C223.406 60.7969 223.312 60.4219 223.125 60.0781C222.938 59.7656 222.844 59.4219 222.844 59.0469V58.6719C223.094 58.4219 223.328 58.1562 223.547 57.875C223.734 57.625 223.938 57.3906 224.156 57.1719C224.375 56.9531 224.625 56.7656 224.906 56.6094C225.188 56.4844 225.547 56.4219 225.984 56.4219C226.578 56.4219 227.156 56.4531 227.719 56.5156C228.281 56.6094 228.859 56.6562 229.453 56.6562C229.859 56.6562 230.281 56.6094 230.719 56.5156C231.406 55.1094 232.016 53.6875 232.547 52.25C233.078 50.7812 233.484 49.2969 233.766 47.7969C233.984 47.4844 234.188 47.125 234.375 46.7188C234.562 46.2812 234.703 45.8281 234.797 45.3594C234.922 44.8906 235 44.4375 235.031 44C235.094 43.5312 235.125 43.1094 235.125 42.7344C235.469 42.3281 235.703 41.8281 235.828 41.2344C235.984 40.6406 236.109 40.0312 236.203 39.4062C236.297 38.75 236.391 38.1094 236.484 37.4844C236.609 36.8594 236.828 36.3125 237.141 35.8438V35.4219C237.172 34.9531 237.125 34.5312 237 34.1562C237.156 34.0938 237.25 33.9531 237.281 33.7344C237.312 33.5156 237.375 33.3281 237.469 33.1719C237.5 31.7344 237.656 30.3281 237.938 28.9531C238.219 27.5469 238.453 26.1406 238.641 24.7344V24.5938C238.641 24.4375 238.578 24.3594 238.453 24.3594C238.359 24.3281 238.312 24.2344 238.312 24.0781C238.312 23.7969 238.344 23.4219 238.406 22.9531C238.5 22.4844 238.562 22.0938 238.594 21.7812C238.781 20.0938 238.875 18.4219 238.875 16.7656C238.875 15.3594 238.828 13.9688 238.734 12.5938C238.641 11.2188 238.547 9.82812 238.453 8.42188L238.828 7.85938C238.953 7.67188 239.062 7.48438 239.156 7.29688C239.469 7.17187 239.719 7.04688 239.906 6.92188C240.125 6.76563 240.406 6.6875 240.75 6.6875C240.844 6.6875 240.922 6.70312 240.984 6.73438C241.047 6.73438 241.109 6.73438 241.172 6.73438C241.359 6.85938 241.5 7.03125 241.594 7.25C241.719 7.46875 241.828 7.67188 241.922 7.85938C242.047 8.04688 242.203 8.20312 242.391 8.32812C242.578 8.45312 242.844 8.48438 243.188 8.42188C243.344 9.29688 243.781 9.75 244.5 9.78125C244.656 10.2188 244.844 10.6562 245.062 11.0938C245.312 11.5312 245.641 11.875 246.047 12.125C246.016 12.25 246 12.4219 246 12.6406C246 13.0781 246.094 13.5 246.281 13.9062C246.5 14.3125 246.766 14.6875 247.078 15.0312V15.125C247.078 15.4688 246.953 15.7031 246.703 15.8281C246.984 16.1406 247.188 16.5156 247.312 16.9531C247.438 17.3906 247.547 17.8438 247.641 18.3125C247.734 18.75 247.844 19.1719 247.969 19.5781C248.125 19.9844 248.375 20.2969 248.719 20.5156V20.6562C248.719 20.8125 248.656 20.9062 248.531 20.9375C248.438 20.9688 248.391 21.0625 248.391 21.2188C248.953 22.25 249.344 23.375 249.562 24.5938C249.781 25.8125 250.062 26.9844 250.406 28.1094C250.531 28.2344 250.672 28.3125 250.828 28.3438C251.016 28.375 251.156 28.4531 251.25 28.5781C251.062 28.7031 250.969 28.9219 250.969 29.2344C250.969 29.5469 250.891 29.7812 250.734 29.9375C250.984 30.1562 251.094 30.4844 251.062 30.9219C251.062 31.3281 251.188 31.625 251.438 31.8125V32C251.438 32.125 251.406 32.2344 251.344 32.3281C251.281 32.3906 251.25 32.4844 251.25 32.6094V32.7969C251.5 33.8906 251.688 34.9844 251.812 36.0781C251.969 37.1719 252.125 38.2656 252.281 39.3594C252.438 40.4531 252.609 41.5469 252.797 42.6406C252.984 43.7031 253.25 44.75 253.594 45.7812C253.625 45.8125 253.641 45.8594 253.641 45.9219C253.641 46.0781 253.578 46.1719 253.453 46.2031C253.328 46.2031 253.266 46.2812 253.266 46.4375C253.266 46.5938 253.312 46.7812 253.406 47C253.531 47.1875 253.656 47.3438 253.781 47.4688C253.75 47.5938 253.734 47.7812 253.734 48.0312C253.734 48.5 253.812 48.9531 253.969 49.3906C254.156 49.8281 254.344 50.2656 254.531 50.7031C254.75 51.1094 254.938 51.5469 255.094 52.0156C255.25 52.4844 255.312 52.9844 255.281 53.5156C255.469 53.7969 255.703 54.0312 255.984 54.2188C256.297 54.4062 256.609 54.5781 256.922 54.7344C257.234 54.8906 257.516 55.0781 257.766 55.2969C258.047 55.5156 258.234 55.8125 258.328 56.1875C258.078 56.4062 257.906 56.6719 257.812 56.9844C257.719 57.3281 257.547 57.625 257.297 57.875C257.516 58.4062 257.766 58.8906 258.047 59.3281C258.359 59.7969 258.672 60.25 258.984 60.6875L259.969 62C260.312 62.4375 260.609 62.9062 260.859 63.4062C261.203 63.4062 261.453 63.5 261.609 63.6875C261.766 63.875 262.016 63.9531 262.359 63.9219C262.484 64.1719 262.531 64.4531 262.5 64.7656C263.125 64.5469 263.75 64.4375 264.375 64.4375C264.719 64.4375 265.031 64.4531 265.312 64.4844C265.625 64.5156 265.938 64.5312 266.25 64.5312C266.625 64.5312 266.953 64.4844 267.234 64.3906C267.359 64.5781 267.453 64.7812 267.516 65C267.578 65.25 267.625 65.5 267.656 65.75L267.797 66.5C267.859 66.75 267.953 66.9688 268.078 67.1562ZM250.406 54.1719C249.969 52.0156 249.516 49.875 249.047 47.75C248.609 45.5938 248.219 43.4219 247.875 41.2344C247.688 40.0781 247.547 38.9219 247.453 37.7656C247.359 36.6094 247.234 35.4688 247.078 34.3438C246.953 33.1875 246.766 32.0469 246.516 30.9219C246.297 29.7969 245.969 28.6875 245.531 27.5938V27.5C245.531 27.4062 245.562 27.3281 245.625 27.2656C245.688 27.2031 245.719 27.0938 245.719 26.9375V26.75C245.312 26.4688 245.031 26.0781 244.875 25.5781C244.719 25.0469 244.578 24.5 244.453 23.9375C244.359 23.3438 244.219 22.7812 244.031 22.25C243.875 21.6875 243.594 21.2188 243.188 20.8438C243.031 22.6562 242.859 24.4688 242.672 26.2812C242.516 28.0625 242.406 29.8594 242.344 31.6719C242.031 31.8594 241.828 32.1719 241.734 32.6094C241.641 33.0469 241.594 33.4375 241.594 33.7812C241.594 34.0312 241.609 34.2969 241.641 34.5781C241.672 34.8281 241.734 35.0938 241.828 35.375C241.266 36.7812 240.859 38.2344 240.609 39.7344C240.359 41.2031 240.078 42.6719 239.766 44.1406C239.734 44.2344 239.672 44.4531 239.578 44.7969C239.516 45.1094 239.438 45.4375 239.344 45.7812C239.25 46.125 239.172 46.4375 239.109 46.7188C239.047 46.9688 239.016 47.1094 239.016 47.1406C238.984 47.3594 238.969 47.5781 238.969 47.7969C239 48.0156 239.016 48.2344 239.016 48.4531L238.312 49.1562C238.188 50.3438 237.953 51.5 237.609 52.625C237.297 53.7188 236.969 54.8438 236.625 56C236.844 56.0312 237.047 56.0469 237.234 56.0469C237.453 56.0781 237.672 56.0938 237.891 56.0938C238.891 56.0938 239.891 56.0312 240.891 55.9062C241.922 55.75 242.938 55.6094 243.938 55.4844C244.281 55.4219 244.641 55.375 245.016 55.3438C245.391 55.2812 245.75 55.25 246.094 55.25C246.25 55.2188 246.438 55.2188 246.656 55.25C246.875 55.25 247.062 55.2344 247.219 55.2031C247.469 55.1406 247.625 55.0469 247.688 54.9219C247.781 54.7656 247.953 54.6719 248.203 54.6406C248.391 54.7344 248.609 54.7812 248.859 54.7812C249.141 54.7812 249.406 54.7188 249.656 54.5938C249.906 54.4688 250.156 54.3281 250.406 54.1719Z" fill="white"/>
</svg>
